<svg id="visual" viewBox="0 0 900 600" width="900" height="600" xmlns="http://www.w3.org/2000/svg" xmlns:xlink="http://www.w3.org/1999/xlink" version="1.1"><path d="M0 49L15 54C30 59 60 69 90 67C120 65 150 51 180 48C210 45 240 53 270 59C300 65 330 69 360 73C390 77 420 81 450 79C480 77 510 69 540 68C570 67 600 73 630 77C660 81 690 83 720 86C750 89 780 93 810 88C840 83 870 69 885 62L900 55L900 0L885 0C870 0 840 0 810 0C780 0 750 0 720 0C690 0 660 0 630 0C600 0 570 0 540 0C510 0 480 0 450 0C420 0 390 0 360 0C330 0 300 0 270 0C240 0 210 0 180 0C150 0 120 0 90 0C60 0 30 0 15 0L0 0Z" fill="#ffffff"></path><path d="M0 121L15 121C30 121 60 121 90 119C120 117 150 113 180 109C210 105 240 101 270 105C300 109 330 121 360 129C390 137 420 141 450 137C480 133 510 121 540 117C570 113 600 117 630 121C660 125 690 129 720 130C750 131 780 129 810 126C840 123 870 119 885 117L900 115L900 53L885 60C870 67 840 81 810 86C780 91 750 87 720 84C690 81 660 79 630 75C600 71 570 65 540 66C510 67 480 75 450 77C420 79 390 75 360 71C330 67 300 63 270 57C240 51 210 43 180 46C150 49 120 63 90 65C60 67 30 57 15 52L0 47Z" fill="#ffc1b7"></path><path d="M0 175L15 177C30 179 60 183 90 183C120 183 150 179 180 174C210 169 240 163 270 167C300 171 330 185 360 190C390 195 420 191 450 183C480 175 510 163 540 157C570 151 600 151 630 158C660 165 690 179 720 184C750 189 780 185 810 180C840 175 870 169 885 166L900 163L900 113L885 115C870 117 840 121 810 124C780 127 750 129 720 128C690 127 660 123 630 119C600 115 570 111 540 115C510 119 480 131 450 135C420 139 390 135 360 127C330 119 300 107 270 103C240 99 210 103 180 107C150 111 120 115 90 117C60 119 30 119 15 119L0 119Z" fill="#ff8173"></path><path d="M0 271L15 273C30 275 60 279 90 276C120 273 150 263 180 255C210 247 240 241 270 241C300 241 330 247 360 254C390 261 420 269 450 261C480 253 510 229 540 224C570 219 600 233 630 239C660 245 690 243 720 247C750 251 780 261 810 258C840 255 870 239 885 231L900 223L900 161L885 164C870 167 840 173 810 178C780 183 750 187 720 182C690 177 660 163 630 156C600 149 570 149 540 155C510 161 480 173 450 181C420 189 390 193 360 188C330 183 300 169 270 165C240 161 210 167 180 172C150 177 120 181 90 181C60 181 30 177 15 175L0 173Z" fill="#fe3f40"></path><path d="M0 427L15 421C30 415 60 403 90 402C120 401 150 411 180 399C210 387 240 353 270 351C300 349 330 379 360 396C390 413 420 417 450 410C480 403 510 385 540 382C570 379 600 391 630 391C660 391 690 379 720 382C750 385 780 403 810 397C840 391 870 361 885 346L900 331L900 221L885 229C870 237 840 253 810 256C780 259 750 249 720 245C690 241 660 243 630 237C600 231 570 217 540 222C510 227 480 251 450 259C420 267 390 259 360 252C330 245 300 239 270 239C240 239 210 245 180 253C150 261 120 271 90 274C60 277 30 273 15 271L0 269Z" fill="#fe3f40"></path><path d="M0 463L15 459C30 455 60 447 90 446C120 445 150 451 180 440C210 429 240 401 270 398C300 395 330 417 360 431C390 445 420 451 450 446C480 441 510 425 540 423C570 421 600 433 630 435C660 437 690 429 720 430C750 431 780 441 810 434C840 427 870 403 885 391L900 379L900 329L885 344C870 359 840 389 810 395C780 401 750 383 720 380C690 377 660 389 630 389C600 389 570 377 540 380C510 383 480 401 450 408C420 415 390 411 360 394C330 377 300 347 270 349C240 351 210 385 180 397C150 409 120 399 90 400C60 401 30 413 15 419L0 425Z" fill="#ff8173"></path><path d="M0 511L15 504C30 497 60 483 90 482C120 481 150 493 180 483C210 473 240 441 270 434C300 427 330 445 360 462C390 479 420 495 450 495C480 495 510 479 540 473C570 467 600 471 630 471C660 471 690 467 720 470C750 473 780 483 810 475C840 467 870 441 885 428L900 415L900 377L885 389C870 401 840 425 810 432C780 439 750 429 720 428C690 427 660 435 630 433C600 431 570 419 540 421C510 423 480 439 450 444C420 449 390 443 360 429C330 415 300 393 270 396C240 399 210 427 180 438C150 449 120 443 90 444C60 445 30 453 15 457L0 461Z" fill="#ffc1b7"></path><path d="M0 601L15 601C30 601 60 601 90 601C120 601 150 601 180 601C210 601 240 601 270 601C300 601 330 601 360 601C390 601 420 601 450 601C480 601 510 601 540 601C570 601 600 601 630 601C660 601 690 601 720 601C750 601 780 601 810 601C840 601 870 601 885 601L900 601L900 413L885 426C870 439 840 465 810 473C780 481 750 471 720 468C690 465 660 469 630 469C600 469 570 465 540 471C510 477 480 493 450 493C420 493 390 477 360 460C330 443 300 425 270 432C240 439 210 471 180 481C150 491 120 479 90 480C60 481 30 495 15 502L0 509Z" fill="#ffffff"></path></svg>